<?xml version="1.0" encoding="UTF-8" standalone="no"?>
<!-- Uploaded to: SVG Repo, www.svgrepo.com, Generator: SVG Repo Mixer Tools -->

<svg
   width="16.558001"
   height="23.975998"
   viewBox="0 0 0.66232002 0.95903992"
   version="1.1"
   id="svg3"
   sodipodi:docname="asp-svgrepo-com.svg"
   inkscape:version="1.4.2 (f4327f4, 2025-05-13)"
   xmlns:inkscape="http://www.inkscape.org/namespaces/inkscape"
   xmlns:sodipodi="http://sodipodi.sourceforge.net/DTD/sodipodi-0.dtd"
   xmlns="http://www.w3.org/2000/svg"
   xmlns:svg="http://www.w3.org/2000/svg"
   xmlns:rdf="http://www.w3.org/1999/02/22-rdf-syntax-ns#"
   xmlns:cc="http://creativecommons.org/ns#"
   xmlns:dc="http://purl.org/dc/elements/1.1/">
  <defs
     id="defs3" />
  <sodipodi:namedview
     id="namedview3"
     pagecolor="#ffffff"
     bordercolor="#666666"
     borderopacity="1.0"
     inkscape:showpageshadow="2"
     inkscape:pageopacity="0.0"
     inkscape:pagecheckerboard="0"
     inkscape:deskcolor="#d1d1d1"
     inkscape:zoom="0.96625"
     inkscape:cx="87.451488"
     inkscape:cy="400"
     inkscape:window-width="1920"
     inkscape:window-height="991"
     inkscape:window-x="-9"
     inkscape:window-y="-9"
     inkscape:window-maximized="1"
     inkscape:current-layer="svg3" />
  <title
     id="title1">file_type_asp</title>
  <path
     d="M 0.24956483,0.9433488 H 0.18167844 L 0.16219634,0.74801607 H 0.08505474 L 0.06654444,0.9433488 H 0 L 0.0937777,0.01493072 H 0.1531494 Z M 0.1053929,0.53456032 h 0.035748 L 0.1230934,0.34751593 Z"
     style="fill:#0088b6;stroke-width:0.0378305"
     id="path1" />
  <path
     d="M 0.34971874,0.95875027 A 0.08574887,0.22922834 0 0 1 0.27914834,0.87531017 0.16427873,0.43915846 0 0 1 0.24906914,0.6335256 l -0.001064,-0.035009 0.0606674,-0.022762 0.001435,0.0309267 a 0.07887693,0.21085791 0 0 0 0.0130729,0.10471764 0.03297143,0.08814096 0 0 0 0.0270481,0.0318545 0.03364243,0.0899347 0 0 0 0.0272795,-0.0277103 0.03146747,0.08412049 0 0 0 0.007821,-0.0563484 0.02126368,0.05684319 0 0 0 -0.002545,-0.0295659 0.02894545,0.07737848 0 0 0 -0.012425,-0.0270917 c -0.003401,-0.004577 -0.0123556,-0.0147211 -0.0352621,-0.0366172 a 0.11582807,0.30963764 0 0 1 -0.0544896,-0.0927799 0.11848892,0.31675077 0 0 1 -0.0235081,-0.19892023 0.12809113,0.34241989 0 0 1 0.0111293,-0.1422626 0.08220878,0.21976479 0 0 1 0.0316526,-0.09896527 0.08871051,0.23714557 0 0 1 0.0472475,-0.0325966897 0.08329626,0.22267189 0 0 1 0.0687194,0.0789866697 0.13061316,0.3491619 0 0 1 0.0254516,0.21450724 l 3.2393e-4,0.034143 -0.0613384,0.0103914 -0.001458,-0.0298133 a 0.05229154,0.13978847 0 0 0 -0.009139,-0.074224 0.02947762,0.07880111 0 0 0 -0.0231378,-0.0218342 0.03401264,0.09092436 0 0 0 -0.025683,0.0247413 0.01237875,0.03309152 0 0 0 -0.003471,0.025298 0.01416036,0.03785422 0 0 0 0.003517,0.0256691 0.08970544,0.23980526 0 0 0 0.0378072,0.0505341 0.18278901,0.4886411 0 0 1 0.0506256,0.0648223 0.09063095,0.24227939 0 0 1 0.0280199,0.0995838 0.1477583,0.3949952 0 0 1 0.0102501,0.15568477 0.14470411,0.38683056 0 0 1 -0.0120548,0.1572311 0.0869289,0.23238286 0 0 1 -0.0340589,0.10867625 0.09916882,0.26510326 0 0 1 -0.0517825,0.0339575 z"
     style="fill:#0088b6;stroke-width:0.0378305"
     id="path2" />
  <path
     d="M 0.53635747,0.94078826 H 0.47388528 V 0.01237017 h 0.0809825 a 0.18475572,0.49389863 0 0 1 0.0557622,0.0140407 0.07223636,0.19310601 0 0 1 0.0367198,0.09618189 0.14991012,0.40074756 0 0 1 0.0148776,0.18865257 0.16305242,0.43588023 0 0 1 -0.008515,0.14962315 0.09926137,0.26535067 0 0 1 -0.0217959,0.0964293 0.06603542,0.17652933 0 0 1 -0.0264234,0.045957 0.18346,0.49043485 0 0 1 -0.0485895,0.0130511 h -0.020639 z m 0,-0.53917525 h 0.0159188 a 0.07436505,0.19879652 0 0 0 0.032393,-0.0112573 0.02401709,0.06420373 0 0 0 0.0100418,-0.0298133 0.04053751,0.10836699 0 0 0 0.003517,-0.0471322 0.03739076,0.09995494 0 0 0 -0.004836,-0.0541216 0.0218884,0.05851323 0 0 0 -0.0132117,-0.0275866 0.1395675,0.37309913 0 0 0 -0.030889,-0.005319 h -0.0130266 z"
     style="fill:#0088b6;stroke-width:0.0378305"
     id="path3" />
  <metadata
     id="metadata3">
    <rdf:RDF>
      <cc:Work
         rdf:about="">
        <dc:title>file_type_asp</dc:title>
      </cc:Work>
    </rdf:RDF>
  </metadata>
</svg>
