<?xml version="1.0" encoding="UTF-8" standalone="no"?>
<!-- Uploaded to: SVG Repo, www.svgrepo.com, Generator: SVG Repo Mixer Tools -->

<svg
   fill="#000000"
   version="1.1"
   width="800px"
   height="800px"
   viewBox="0 0 512 512"
   enable-background="new 0 0 512 512"
   xml:space="preserve"
   id="svg1"
   sodipodi:docname="asp.svg"
   inkscape:version="1.4.2 (f4327f4, 2025-05-13)"
   xmlns:inkscape="http://www.inkscape.org/namespaces/inkscape"
   xmlns:sodipodi="http://sodipodi.sourceforge.net/DTD/sodipodi-0.dtd"
   xmlns="http://www.w3.org/2000/svg"
   xmlns:svg="http://www.w3.org/2000/svg"><defs
   id="defs1" /><sodipodi:namedview
   id="namedview1"
   pagecolor="#ffffff"
   bordercolor="#666666"
   borderopacity="1.0"
   inkscape:showpageshadow="2"
   inkscape:pageopacity="0.0"
   inkscape:pagecheckerboard="0"
   inkscape:deskcolor="#d1d1d1"
   inkscape:zoom="0.96625"
   inkscape:cx="400"
   inkscape:cy="400"
   inkscape:window-width="1920"
   inkscape:window-height="991"
   inkscape:window-x="-9"
   inkscape:window-y="-9"
   inkscape:window-maximized="1"
   inkscape:current-layer="svg1" />

<g
   id="5151e0c8492e5103c096af88a51eafb7"
   transform="matrix(0.020738,0,0,0.04533946,258.33754,166.96821)">

<path
   display="inline"
   d="m 295.474,319.537 c 0.826,4.135 1.24,11.37 1.24,21.707 v 80.997 h -22.327 v -80.129 c 0,-9.097 -0.868,-15.894 -2.604,-20.404 -1.737,-4.507 -4.817,-8.104 -9.241,-10.792 -4.424,-2.683 -9.613,-4.031 -15.567,-4.031 -9.51,0 -17.717,3.019 -24.622,9.055 -6.905,6.037 -10.357,17.49 -10.357,34.359 v 71.942 H 189.669 V 290.512 h 20.094 v 18.73 c 9.675,-14.472 23.65,-21.707 41.925,-21.707 7.938,0 15.236,1.426 21.893,4.279 6.657,2.853 11.64,6.595 14.947,11.226 3.307,4.631 5.622,10.13 6.946,16.497 z M 511.5,423.052 c -6.284,1.323 -11.908,1.984 -16.869,1.984 -8.104,0 -14.389,-1.281 -18.854,-3.845 -4.465,-2.563 -7.607,-5.934 -9.427,-10.109 -1.819,-4.172 -2.729,-12.962 -2.729,-26.358 v -79.542 h -48.475 c 0.111,0.12 0.235,0.219 0.347,0.339 11.164,11.99 16.746,28.859 16.746,50.608 0,1.322 -0.042,3.308 -0.124,5.953 h -98.239 c 0.827,14.472 4.92,25.553 12.279,33.243 7.36,7.69 16.539,11.535 27.537,11.535 8.187,0 15.174,-2.149 20.963,-6.45 5.788,-4.3 10.378,-11.163 13.769,-20.59 l 23.071,2.853 c -3.639,13.479 -10.378,23.939 -20.219,31.382 -9.841,7.443 -22.41,11.164 -37.708,11.164 -19.268,0 -34.545,-5.934 -45.832,-17.8 -11.288,-11.862 -16.932,-28.509 -16.932,-49.926 0,-22.162 5.706,-39.362 17.117,-51.601 11.412,-12.238 26.214,-18.357 44.406,-18.357 2.199,0 4.354,0.095 6.454,0.281 h 84.839 v -28.579 h 22.203 v 28.579 h 22.451 v 17.365 h -22.451 v 80.782 c 0,6.367 0.393,10.461 1.178,12.28 0.786,1.819 2.067,3.267 3.846,4.341 1.777,1.075 4.32,1.613 7.628,1.613 2.481,0 5.747,-0.29 9.8,-0.869 z M 408.672,343.725 c -0.993,-11.081 -3.805,-19.392 -8.435,-24.932 -7.112,-8.601 -16.332,-12.9 -27.661,-12.9 -10.254,0 -18.875,3.432 -25.862,10.295 -6.987,6.864 -10.854,16.043 -11.598,27.537 z M 157.881,395.42 c -4.035,0 -7.459,1.435 -10.279,4.354 -2.82,2.898 -4.217,6.405 -4.217,10.548 0,4.035 1.397,7.529 4.217,10.473 2.82,2.944 6.244,4.425 10.279,4.425 4.139,0 7.662,-1.48 10.56,-4.425 2.906,-2.943 4.35,-6.438 4.35,-10.473 0,-4.044 -1.443,-7.55 -4.35,-10.489 -2.899,-2.958 -6.421,-4.413 -10.56,-4.413 z M 301.047,267.196 c -11.577,5.086 -26.172,7.629 -43.785,7.629 -30.928,0 -52.345,-5.954 -64.253,-17.862 -0.05,-0.05 -0.096,-0.103 -0.146,-0.152 l 5.604,14.913 h -58.84 l -9.101,-30.018 H 66.737 l -8.865,30.018 H 0.5 L 68.846,89.883 h 61.292 l 45.653,121.494 50.461,-3.161 c 1.158,8.683 3.514,15.3 7.07,19.847 5.789,7.361 14.058,11.039 24.808,11.039 8.021,0 14.203,-1.879 18.544,-5.644 4.342,-3.763 6.513,-8.125 6.513,-13.086 0,-4.714 -2.067,-8.932 -6.202,-12.652 -4.135,-3.722 -13.728,-7.235 -28.777,-10.544 -24.642,-5.538 -42.214,-12.899 -52.716,-22.078 -10.585,-9.18 -15.877,-20.88 -15.877,-35.104 0,-9.344 2.708,-18.172 8.125,-26.482 5.416,-8.311 13.562,-14.841 24.436,-19.598 10.874,-4.755 25.779,-7.133 44.716,-7.133 23.237,0 40.954,4.323 53.151,12.962 12.197,8.642 19.453,22.39 21.769,41.243 l -52.965,3.102 c -1.405,-8.187 -4.362,-14.141 -8.869,-17.862 -4.506,-3.721 -10.729,-5.581 -18.667,-5.581 -6.533,0 -11.453,1.385 -14.761,4.155 -3.308,2.771 -4.961,6.14 -4.961,10.108 0,2.896 1.364,5.502 4.093,7.814 2.646,2.4 8.931,4.633 18.854,6.698 24.56,5.293 42.152,10.649 52.778,16.063 10.626,5.416 18.358,12.137 23.195,20.156 2.479,4.109 4.312,8.472 5.521,13.079 V 89.883 h 93.401 c 20.342,0 35.578,4.837 45.708,14.512 10.13,9.676 15.195,23.443 15.195,41.306 0,18.357 -5.521,32.705 -16.56,43.041 -11.04,10.339 -27.889,15.505 -50.546,15.505 h -30.762 v 67.478 h -56.438 v -44.868 c -1.574,6.286 -4.216,12.271 -7.939,17.952 -6.451,9.84 -15.465,17.302 -27.042,22.387 z m 91.417,-99.789 h 13.769 c 10.832,0 18.44,-1.88 22.823,-5.645 4.383,-3.762 6.573,-8.577 6.573,-14.45 0,-5.706 -1.901,-10.543 -5.705,-14.513 -3.804,-3.969 -10.957,-5.954 -21.459,-5.954 h -16.001 z m -273.593,34.979 -20.07,-65.368 -19.863,65.368 z"
   id="path1">

</path>

</g>

</svg>
