<?xml version="1.0" encoding="UTF-8" standalone="no"?>
<!-- Uploaded to: SVG Repo, www.svgrepo.com, Generator: SVG Repo Mixer Tools -->

<svg
   width="16.558001"
   height="23.976"
   viewBox="0 0 5.2985602 7.6723199"
   preserveAspectRatio="xMinYMin"
   version="1.1"
   id="svg2"
   sodipodi:docname="bootstrap.svg"
   inkscape:version="1.4.2 (f4327f4, 2025-05-13)"
   xmlns:inkscape="http://www.inkscape.org/namespaces/inkscape"
   xmlns:sodipodi="http://sodipodi.sourceforge.net/DTD/sodipodi-0.dtd"
   xmlns="http://www.w3.org/2000/svg"
   xmlns:svg="http://www.w3.org/2000/svg">
  <defs
     id="defs2" />
  <sodipodi:namedview
     id="namedview2"
     pagecolor="#ffffff"
     bordercolor="#666666"
     borderopacity="1.0"
     inkscape:showpageshadow="2"
     inkscape:pageopacity="0.0"
     inkscape:pagecheckerboard="0"
     inkscape:deskcolor="#d1d1d1"
     inkscape:zoom="5.4659354"
     inkscape:cx="22.50301"
     inkscape:cy="50.403084"
     inkscape:window-width="1031"
     inkscape:window-height="981"
     inkscape:window-x="871"
     inkscape:window-y="0"
     inkscape:window-maximized="0"
     inkscape:current-layer="svg2" />
  <path
     d="M 0,6.6830403 C 0,7.2294533 0.3058884,7.67232 0.6832038,7.67232 H 4.6153355 C 4.992713,7.67232 5.29856,7.2293934 5.29856,6.6830403 V 0.9893097 C 5.29856,0.44286669 4.9926716,0 4.6153562,0 H 0.6832245 C 0.305847,0 0,0.44292663 0,0.98927973 V 6.6830103 Z"
     fill="#563d7c"
     id="path1"
     style="stroke-width:0.0249059" />
  <path
     d="M 1.928185,3.087338 V 1.607795 h 0.9282909 c 0.088434,0 0.1736672,0.010325 0.2557592,0.031017 0.082092,0.02065 0.1547297,0.057544 0.2178841,0.1107218 0.063125,0.053177 0.1136546,0.1270057 0.1515589,0.2214846 0.037875,0.09452 0.056842,0.2156077 0.056842,0.3632233 0,0.2658059 -0.056842,0.4577837 -0.1705255,0.5758925 C 3.2543397,3.0282836 3.1090933,3.087338 2.9322552,3.087338 Z M 0.9367106,0.52689975 V 6.8526981 h 2.1850079 c 0.2020881,0 0.3989111,-0.035424 0.5904687,-0.1063142 C 3.9037448,6.6754941 4.0742413,6.5662415 4.2237057,6.4185851 4.373141,6.2709288 4.49209,6.0804202 4.5804945,5.847141 4.6689281,5.6138211 4.7131158,5.3376898 4.7131158,5.0187471 4.7131158,4.622997 4.6446958,4.2848729 4.5078859,4.0043339 4.3710465,3.7237541 4.163693,3.5273687 3.8858254,3.4151368 4.0879136,3.2793158 4.2405488,3.1050502 4.343702,2.8924218 4.446826,2.6797933 4.4984025,2.4140282 4.4984025,2.0950447 4.4984025,1.799732 4.4636694,1.551679 4.3942022,1.3508452 4.3247352,1.1500521 4.2268474,0.98909115 4.1005386,0.86800312 3.974259,0.7469151 3.8227001,0.65978233 3.645862,0.60664562 3.469053,0.5534681 3.2732773,0.52689975 3.0585641,0.52689975 Z M 1.928185,5.7718029 V 4.03531 h 1.0798498 c 0.2147132,0 0.3873332,0.06938 0.5178601,0.2082207 0.1304977,0.1388003 0.1957756,0.3706102 0.1957756,0.6954706 0,0.1654093 -0.020014,0.3012304 -0.060013,0.4075447 -0.039999,0.1063141 -0.09367,0.1905085 -0.1610422,0.2525013 -0.067343,0.062034 -0.1452464,0.1063142 -0.2336509,0.1329234 -0.088434,0.026528 -0.181027,0.039832 -0.2778676,0.039832 z"
     fill="#ffffff"
     id="path2"
     style="stroke-width:0.0344559" />
</svg>
