<?xml version="1.0" encoding="UTF-8" standalone="no"?>
<!-- Uploaded to: SVG Repo, www.svgrepo.com, Generator: SVG Repo Mixer Tools -->

<svg
   width="50"
   height="50"
   viewBox="0 0 64 64"
   class="icon"
   version="1.1"
   id="svg45"
   sodipodi:docname="cloud.svg"
   inkscape:version="1.4.2 (f4327f4, 2025-05-13)"
   xmlns:inkscape="http://www.inkscape.org/namespaces/inkscape"
   xmlns:sodipodi="http://sodipodi.sourceforge.net/DTD/sodipodi-0.dtd"
   xmlns="http://www.w3.org/2000/svg"
   xmlns:svg="http://www.w3.org/2000/svg">
  <defs
     id="defs45" />
  <sodipodi:namedview
     id="namedview45"
     pagecolor="#ffffff"
     bordercolor="#666666"
     borderopacity="1.0"
     inkscape:showpageshadow="2"
     inkscape:pageopacity="0.0"
     inkscape:pagecheckerboard="0"
     inkscape:deskcolor="#d1d1d1"
     inkscape:zoom="0.96625"
     inkscape:cx="376.19664"
     inkscape:cy="339.97413"
     inkscape:window-width="1920"
     inkscape:window-height="991"
     inkscape:window-x="-9"
     inkscape:window-y="-9"
     inkscape:window-maximized="1"
     inkscape:current-layer="svg45" />
  <path
     d="m 64,30.71363 v 2.57827 c 0,0.98217 -0.401193,1.9642 -1.204576,2.73584 -9.309151,8.94439 -18.621623,17.8854 -27.92991,26.83016 -0.784918,0.75418 -1.714637,1.14188 -2.820045,1.14188 v -2.57827 c 1.105408,0 2.035127,-0.38777 2.820045,-1.14188 C 44.173868,51.33487 53.48614,42.39364 62.795424,33.44954 63.598807,32.67783 64,31.69602 64,30.71363 Z"
     fill="#56c3e9"
     id="path1"
     style="stroke-width:0.0699501" />
  <path
     d="M 7.0715523e-5,33.2793 V 33.02147 32.89256 32.63473 32.37691 32.24799 31.99017 31.73234 31.60342 31.3456 31.08777 30.95886 30.70103 c 0,1.08339 0.445099004477,2.15934 1.264490984477,2.948 9.1961653,8.8445 18.4023603,17.67928 27.6027773,26.52084 0.863629,0.82946 1.90899,1.21296 3.178462,1.25186 V 64 C 30.776529,63.9611 29.730968,63.57761 28.867339,62.74814 19.666922,53.90658 10.460727,45.0718 1.2645617,36.2273 0.44510372,35.43871 7.0715523e-5,34.36269 7.0715523e-5,33.2793 Z"
     fill="#56c3e9"
     id="path2"
     style="stroke-width:0.0699501" />
  <path
     d="m 31.919332,0 c 1.080234,0 2.161796,0.394991 2.985438,1.185784 9.2958,8.927303 18.591732,17.854606 27.885539,26.783526 1.610154,1.5466 1.613741,3.93467 0.0052,5.48045 -9.30917,8.94425 -18.621708,17.88547 -27.929995,26.83001 -0.784851,0.75426 -1.714571,1.14196 -2.819912,1.14196 -1.269273,-0.0389 -2.314833,-0.4224 -3.178529,-1.25186 C 19.666856,51.32831 10.460661,42.49353 1.2644947,33.64903 -0.03612928,32.39761 -0.39341728,30.42177 0.47439572,28.84232 0.73470672,28.36806 1.0502147,27.97093 1.4352017,27.60114 10.608783,18.794349 19.779775,9.985352 28.95163,1.176134 29.768364,0.392339 30.843217,0 31.919332,0 Z"
     fill="#7dccdf"
     id="path3"
     style="stroke-width:0.0699501" />
  <path
     d="m 40.772026,25.50846 v 1.23757 c 0,-0.0354 -0.009,-0.0787 -0.02285,-0.13031 -0.186847,-0.68354 -0.456656,-1.33363 -0.831613,-1.94195 -1.256054,-2.035217 -3.175008,-3.056434 -5.575128,-3.256508 a 5.5642351,6.1709095 0 0 0 -0.412618,-0.01702 c -0.270341,0 -0.53663,0.02166 -0.799731,0.06151 v -1.237571 a 5.8847249,6.5263427 0 0 1 0.799731,-0.06151 c 0.136565,0 0.273993,0.0055 0.412618,0.01709 2.400319,0.200001 4.319007,1.221217 5.575128,3.256509 0.374957,0.60832 0.644965,1.25842 0.831613,1.94195 0.01395,0.0515 0.02285,0.0947 0.02285,0.13024"
     fill="#040000"
     id="path4"
     style="stroke-width:0.0699501" />
  <path
     d="m 33.130219,20.224185 v 1.237571 c -0.554497,0.08405 -1.09292,0.249208 -1.617328,0.462984 v -1.237571 c 0.524408,-0.213849 1.062831,-0.378858 1.617328,-0.462984"
     fill="#040000"
     id="path5"
     style="stroke-width:0.0699501" />
  <path
     d="m 31.512958,20.687169 v 1.237571 a 11.850087,13.142115 0 0 0 -0.729189,0.329798 c -0.376152,0.185856 -0.7355,0.396096 -1.073392,0.635507 v -1.237571 c 0.337892,-0.239411 0.697306,-0.44965 1.073392,-0.635507 a 11.791569,13.077216 0 0 1 0.729189,-0.329798 m -1.802581,0.965232 v 1.23757 c -0.273795,0.19396 -0.533508,0.406999 -0.776482,0.641699 -0.03155,0.0304 -0.06529,0.0582 -0.08828,0.0884 v -1.237566 c 0.02305,-0.03013 0.05673,-0.05797 0.08828,-0.0884 0.242974,-0.234697 0.502687,-0.447662 0.776482,-0.641695"
     fill="#040000"
     id="path6"
     style="stroke-width:0.0699501" />
  <path
     d="m 28.845619,22.382494 v 1.237566 c -0.01608,0.0209 -0.02697,0.043 -0.02863,0.068 v -1.2375 c 0.0016,-0.02505 0.01255,-0.04707 0.02863,-0.06807 m -0.02863,0.06792 v 1.24376 -1.237573 -0.0062"
     fill="#040000"
     id="path7"
     style="stroke-width:0.0699501" />
  <path
     d="m 29.229476,26.97064 v 1.23757 c -0.08024,0.012 -0.15875,0.0181 -0.235469,0.0181 -0.675453,0 -1.198599,-0.45783 -1.239249,-1.13776 -0.06164,-1.03536 -0.531582,-1.87521 -1.536359,-2.41149 -0.422648,-0.22571 -0.866618,-0.32427 -1.299428,-0.32427 -0.146595,0 -0.292128,0.0113 -0.435003,0.0329 v -1.237567 a 3.2137327,3.5641293 0 0 1 0.435003,-0.03285 c 0.432744,0 0.87678,0.09856 1.299428,0.324127 1.00491,0.53628 1.474918,1.37614 1.536359,2.4115 0.04078,0.67993 0.563863,1.13775 1.239249,1.13775 0.07672,0 0.155297,-0.006 0.235469,-0.018 m -4.745575,-3.822552 v 1.237572 a 3.3262528,3.6889177 0 0 0 -0.696243,0.19227 v -1.237577 a 3.3304375,3.6935586 0 0 1 0.696243,-0.192265 m -0.696309,0.192413 v 1.237579 a 3.1845067,3.5317168 0 0 0 -0.614411,0.33634 v -1.23757 a 3.167436,3.5127849 0 0 1 0.614411,-0.336349 m -0.61461,0.336279 v 1.23758 c -0.226967,0.16103 -0.42484,0.34917 -0.582461,0.55558 v -1.23757 c 0.157687,-0.20641 0.355561,-0.3947 0.582461,-0.55559 m -0.582461,0.55572 v 1.23757 c -0.10269,0.1346 -0.188176,0.27654 -0.253802,0.42351 -0.203984,0.45664 -0.311921,0.91978 -0.337627,1.39389 V 26.0499 c 0.02551,-0.4741 0.133709,-0.93724 0.337627,-1.39389 0.06563,-0.14711 0.151178,-0.28906 0.253802,-0.4235"
     fill="#040000"
     id="path8"
     style="stroke-width:0.0699501" />
  <path
     d="m 29.229476,26.97064 v 1.23757 c -0.08024,0.012 -0.15875,0.0181 -0.235469,0.0181 -0.675453,0 -1.198599,-0.45783 -1.239249,-1.13776 -0.06164,-1.03536 -0.531582,-1.87521 -1.536359,-2.41149 -0.422648,-0.22571 -0.866618,-0.32427 -1.299428,-0.32427 -0.146595,0 -0.292128,0.0113 -0.435003,0.0329 v -1.237567 a 3.2137327,3.5641293 0 0 1 0.435003,-0.03285 c 0.432744,0 0.87678,0.09856 1.299428,0.324127 1.00491,0.53628 1.474918,1.37614 1.536359,2.4115 0.04078,0.67993 0.563863,1.13775 1.239249,1.13775 0.07672,0 0.155297,-0.006 0.235469,-0.018"
     fill="#040000"
     id="path9"
     style="stroke-width:0.0699501" />
  <path
     d="m 40.772026,25.50846 v 1.23757 c 0,-0.0354 -0.009,-0.0787 -0.02285,-0.13031 -0.186847,-0.68354 -0.456656,-1.33363 -0.831613,-1.94195 -1.256054,-2.035217 -3.175008,-3.056434 -5.575128,-3.256508 a 5.5642351,6.1709095 0 0 0 -0.412618,-0.01702 c -0.270341,0 -0.53663,0.02166 -0.799731,0.06151 v -1.237571 a 5.8847249,6.5263427 0 0 1 0.799731,-0.06151 c 0.136565,0 0.273993,0.0055 0.412618,0.01709 2.400319,0.200001 4.319007,1.221217 5.575128,3.256509 0.374957,0.60832 0.644965,1.25842 0.831613,1.94195 0.01395,0.0515 0.02285,0.0947 0.02285,0.13024"
     fill="#040000"
     id="path10"
     style="stroke-width:0.0699501" />
  <path
     d="m 40.772623,25.51163 v 1.23757 c 0,0.004 0,0.007 -2.65e-4,0.0108 v -1.23757 c 2.65e-4,-0.003 2.65e-4,-0.007 2.65e-4,-0.0108"
     fill="#949394"
     id="path11"
     style="stroke-width:0.0699501" />
  <path
     d="m 40.772358,25.52231 v 1.23757 c -0.0013,0.0242 -0.0074,0.0445 -0.01973,0.0609 v -1.23757 c 0.01235,-0.0163 0.01847,-0.0365 0.01973,-0.0609"
     fill="#989898"
     id="path12"
     style="stroke-width:0.0699501" />
  <path
     d="m 40.75263,25.58331 v 1.23757 a 0.08515399,0.09443841 0 0 1 -0.02039,0.0193 v -1.23757 a 0.08103577,0.08987119 0 0 0 0.02039,-0.0193"
     fill="#949394"
     id="path13"
     style="stroke-width:0.0699501" />
  <path
     d="m 40.732305,25.60276 v 1.23757 c -0.0073,0.006 -0.01594,0.0101 -0.02591,0.0141 v -1.23757 a 0.12886017,0.14290993 0 0 0 0.02591,-0.0141"
     fill="#8e8e8e"
     id="path14"
     style="stroke-width:0.0699501" />
  <path
     d="m 40.7064,25.61675 v 1.23757 a 0.2587831,0.28699849 0 0 1 -0.05294,0.0136 v -1.23757 c 0.02072,-0.003 0.03819,-0.008 0.05294,-0.0136"
     fill="#8a8a8a"
     id="path15"
     style="stroke-width:0.0699501" />
  <path
     d="m 40.653461,25.63031 v 1.23757 a 0.62311197,0.69105052 0 0 1 -0.08376,0.005 v -1.23757 a 0.62311197,0.69105052 0 0 0 0.08376,-0.005"
     fill="#858585"
     id="path16"
     style="stroke-width:0.0699501" />
  <path
     d="m 30.117814,25.71318 v 1.23757 c 0,-1.17724 -0.366122,-2.23448 -1.229485,-3.12457 -0.05168,-0.0534 -0.07147,-0.0957 -0.07147,-0.13201 V 22.4566 c 0,0.03632 0.01973,0.0786 0.07147,0.132008 0.863363,0.890162 1.229485,1.947332 1.229485,3.124572"
     fill="#858585"
     id="path17"
     style="stroke-width:0.0699501" />
  <path
     d="m 22.590521,24.23251 v 1.23757 c -0.10269,0.13459 -0.188176,0.27654 -0.253802,0.4235 -0.203984,0.45665 -0.311921,0.91978 -0.337627,1.39389 V 26.0499 c 0.02551,-0.47411 0.133709,-0.93724 0.337627,-1.39389 0.06563,-0.14711 0.151178,-0.28906 0.253802,-0.4235"
     fill="#040000"
     id="path18"
     style="stroke-width:0.0699501" />
  <path
     d="m 21.999159,26.0499 v 1.23757 a 3.44867,3.8246821 0 0 0 -0.006,0.22542 v -1.23757 a 3.2309362,3.5832085 0 0 1 0.006,-0.22542"
     fill="#040000"
     id="path19"
     style="stroke-width:0.0699501" />
  <path
     d="m 22.005535,26.63635 v 1.23757 c 0,-0.02 -9.3e-4,-0.0406 -0.0021,-0.0614 a 3.5548136,3.9423986 0 0 1 -0.01036,-0.29975 V 26.2752 c 0,0.0995 0.0035,0.19919 0.01036,0.29974 0.0013,0.0209 0.0021,0.0413 0.0021,0.0614"
     fill="#858585"
     id="path20"
     style="stroke-width:0.0699501" />
  <path
     d="m 40.569569,25.63561 v 1.23757 a 10.568526,11.720824 0 0 0 -0.198272,-0.002 c -0.346926,0 -0.693919,0.0233 -1.038121,0.0754 h -6.7e-5 v -1.23757 h 6.7e-5 c 0.344202,-0.0522 0.691195,-0.0753 1.038121,-0.0753 0.05885,0 0.118033,7.3e-4 0.198272,0.002"
     fill="#858585"
     id="path21"
     style="stroke-width:0.0699501" />
  <path
     d="m 39.333043,25.70876 v 1.23757 a 0.85220408,0.94512079 0 0 0 -0.176552,0.0496 v -1.23757 c 0.05825,-0.0236 0.117502,-0.0406 0.176552,-0.0496"
     fill="#8a8a8a"
     id="path22"
     style="stroke-width:0.0699501" />
  <path
     d="m 39.156491,25.75841 v 1.23757 c -0.07107,0.0289 -0.14055,0.068 -0.206442,0.1147 v -1.23757 a 1.0948464,1.2142187 0 0 1 0.206442,-0.1147"
     fill="#8e8e8e"
     id="path23"
     style="stroke-width:0.0699501" />
  <path
     d="m 38.950049,25.87333 v 1.23757 a 1.2344671,1.3690623 0 0 0 -0.27406,0.26578 v -1.23757 a 1.2310795,1.3653054 0 0 1 0.27406,-0.26578"
     fill="#949394"
     id="path24"
     style="stroke-width:0.0699501" />
  <path
     d="m 38.675989,26.13904 v 1.23757 c -0.121089,0.1586 -0.201328,0.34077 -0.210892,0.51204 v -1.23757 c 0.0096,-0.17127 0.0898,-0.35344 0.210892,-0.51204"
     fill="#989898"
     id="path25"
     style="stroke-width:0.0699501" />
  <path
     d="m 38.465097,26.65115 v 1.23757 c -2e-4,0.002 -2e-4,0.004 -5.98e-4,0.006 a 3.3498993,3.7151424 0 0 0 -0.0046,0.17495 V 26.8321 c 0,-0.0574 0.002,-0.11595 0.0046,-0.17495 3.98e-4,-0.002 3.98e-4,-0.004 5.98e-4,-0.006"
     fill="#949394"
     id="path26"
     style="stroke-width:0.0699501" />
  <path
     d="m 30.117681,25.71311 v 1.23757 c 0,0.10261 -0.0028,0.20626 -0.0082,0.31071 v 3.7e-4 -1.23757 -4.4e-4 c 0.0054,-0.10438 0.0082,-0.20803 0.0082,-0.31064"
     fill="#040000"
     id="path27"
     style="stroke-width:0.0699501" />
  <path
     d="m 30.109445,26.02419 v 1.23757 c -0.0089,0.1656 -0.0989,0.36236 -0.22896,0.53231 v -1.23758 c 0.12999,-0.17001 0.220059,-0.36663 0.22896,-0.5323 m -0.22896,0.5323 v 1.23758 c -0.07977,0.10423 -0.174359,0.1986 -0.274525,0.26968 v -1.23757 c 0.100166,-0.0711 0.194885,-0.16538 0.274525,-0.26969 m -0.274525,0.26969 v 1.23757 a 0.87279514,0.96795692 0 0 1 -0.164861,0.0926 v -1.23757 a 0.86880978,0.96353702 0 0 0 0.164861,-0.0926 m -0.16506,0.0925 v 1.23757 a 0.62835936,0.69687005 0 0 1 -0.09133,0.0289 c -0.04032,0.009 -0.08037,0.0167 -0.120158,0.0229 v -1.23757 a 1.9768079,2.1923414 0 0 0 0.120158,-0.0228 0.59913335,0.66445749 0 0 0 0.09133,-0.0289"
     fill="#040000"
     id="path28"
     style="stroke-width:0.0699501" />
  <path
     d="m 29.229476,26.97064 v 1.23757 c -0.08024,0.012 -0.15875,0.0181 -0.235469,0.0181 -0.675453,0 -1.198599,-0.45783 -1.239249,-1.13776 -0.06164,-1.03536 -0.531582,-1.87521 -1.536359,-2.41149 -0.422648,-0.22571 -0.866618,-0.32427 -1.299428,-0.32427 -0.146595,0 -0.292128,0.0113 -0.435003,0.0329 v -1.237567 a 3.2137327,3.5641293 0 0 1 0.435003,-0.03285 c 0.432744,0 0.87678,0.09856 1.299428,0.324127 1.00491,0.53628 1.474918,1.37614 1.536359,2.4115 0.04078,0.67993 0.563863,1.13775 1.239249,1.13775 0.07672,0 0.155297,-0.006 0.235469,-0.018"
     fill="#040000"
     id="path29"
     style="stroke-width:0.0699501" />
  <path
     d="m 45.522117,32.12659 v 1.23757 c 0,-0.44044 -0.07619,-0.87602 -0.234672,-1.28486 -0.712517,-1.83595 -2.269732,-2.84486 -4.078092,-2.95536 a 4.3304322,4.8025838 0 0 0 -0.236398,-0.007 c -0.232082,0 -0.463034,0.0181 -0.693587,0.0359 -0.228428,0.0181 -0.457055,0.0357 -0.686546,0.0357 -0.02537,0 -0.05088,-2.2e-4 -0.07612,-5.9e-4 -0.277182,-0.005 -0.474657,-0.10232 -0.688273,-0.2677 -0.308202,-0.23786 -0.368115,-0.52854 -0.368115,-0.84972 v -1.23757 c 0,0.32118 0.05991,0.61193 0.368115,0.84972 0.213682,0.16538 0.411091,0.2624 0.688273,0.2677 0.02524,3.7e-4 0.05075,5.9e-4 0.07612,5.9e-4 0.229491,0 0.458052,-0.0175 0.686546,-0.0357 0.230487,-0.0177 0.461505,-0.0358 0.693587,-0.0358 0.07871,0 0.157222,0.002 0.236398,0.007 1.808493,0.11042 3.365642,1.11934 4.078092,2.95536 0.158485,0.40855 0.234672,0.8442 0.234672,1.28479"
     fill="#040000"
     id="path30"
     style="stroke-width:0.0699501" />
  <path
     d="m 22.005336,26.63627 v 1.23757 c 0,0.0152 -4.65e-4,0.0304 -0.0012,0.0451 v -1.23757 a 0.54200977,0.60110566 0 0 0 0.0012,-0.0451"
     fill="#040000"
     id="path31"
     style="stroke-width:0.0699501" />
  <path
     d="M 22.004273,26.68143 V 27.919 c -0.0081,0.14873 -0.05613,0.26917 -0.131849,0.36788 v -1.23757 c 0.07559,-0.0986 0.123746,-0.21908 0.131849,-0.36788 m -0.131915,0.36796 v 1.23757 c -0.04696,0.0614 -0.104616,0.1144 -0.169711,0.16051 V 27.2099 c 0.06516,-0.0461 0.122816,-0.0992 0.169711,-0.16051 m -0.169711,0.16051 v 1.23757 c -0.06303,0.0448 -0.133111,0.0831 -0.207305,0.11603 -0.322549,0.14416 -0.618994,0.31248 -0.890065,0.50482 v -1.23757 c 0.271071,-0.19212 0.567649,-0.36059 0.890065,-0.50475 0.07419,-0.0331 0.14427,-0.0714 0.207305,-0.1161 m -1.097437,0.62063 v 1.23757 c -0.394551,0.27948 -0.7353,0.60906 -1.024239,0.98659 v -1.23757 c 0.288939,-0.37753 0.629622,-0.70711 1.024239,-0.98659 m -1.024305,0.98674 v 1.23757 a 4.5715469,5.0699874 0 0 0 -0.542873,0.88626 c -0.29339,0.60531 -0.543604,1.22778 -0.579472,1.88796 v -1.23757 c 0.03613,-0.66018 0.286149,-1.28273 0.579472,-1.88796 a 4.5752001,5.074039 0 0 1 0.542873,-0.88626 m -1.122412,2.77422 v 1.23757 a 2.4272207,2.6918631 0 0 0 -0.0043,0.16199 v -1.23757 a 2.3673074,2.6254174 0 0 1 0.0043,-0.16199"
     fill="#040000"
     id="path32"
     style="stroke-width:0.0699501" />
  <path
     d="m 45.522117,32.12659 v 1.23757 c 0,-0.44044 -0.07619,-0.87602 -0.234672,-1.28486 -0.712517,-1.83595 -2.269732,-2.84486 -4.078092,-2.95536 a 4.3304322,4.8025838 0 0 0 -0.236398,-0.007 c -0.232082,0 -0.463034,0.0181 -0.693587,0.0359 -0.228428,0.0181 -0.457055,0.0357 -0.686546,0.0357 -0.02537,0 -0.05088,-2.2e-4 -0.07612,-5.9e-4 -0.277182,-0.005 -0.474657,-0.10232 -0.688273,-0.2677 -0.308202,-0.23786 -0.368115,-0.52854 -0.368115,-0.84972 v -1.23757 c 0,0.32118 0.05991,0.61193 0.368115,0.84972 0.213682,0.16538 0.411091,0.2624 0.688273,0.2677 0.02524,3.7e-4 0.05075,5.9e-4 0.07612,5.9e-4 0.229491,0 0.458052,-0.0175 0.686546,-0.0357 0.230487,-0.0177 0.461505,-0.0358 0.693587,-0.0358 0.07871,0 0.157222,0.002 0.236398,0.007 1.808493,0.11042 3.365642,1.11934 4.078092,2.95536 0.158485,0.40855 0.234672,0.8442 0.234672,1.28479"
     fill="#040000"
     id="path33"
     style="stroke-width:0.0699501" />
  <path
     d="m 16.824227,32.58015 v 1.23757 c 0,-0.0458 -0.0033,-0.0913 -0.06131,-0.11742 v -1.23757 c 0.05799,0.0261 0.06131,0.0716 0.06131,0.11742 z"
     fill="#58a1d8"
     id="path34"
     style="stroke-width:0.0699501" />
  <path
     d="m 16.824227,32.58015 v 1.23757 c 0,-0.0458 -0.0033,-0.0913 -0.06131,-0.11742 v -1.23757 c 0.05799,0.0261 0.06131,0.0716 0.06131,0.11742"
     fill="#58a1d8"
     id="path35"
     style="stroke-width:0.0699501" />
  <path
     d="m 45.522117,32.12674 v 1.23764 c 0,0.0725 -0.0021,0.14542 -0.0062,0.21842 v -1.23757 c 0.0041,-0.073 0.0062,-0.14586 0.0062,-0.21849"
     fill="#949394"
     id="path36"
     style="stroke-width:0.0699501" />
  <path
     d="m 45.51594,32.3453 v 1.23765 c -0.0465,0.82158 -0.352905,1.64751 -0.879039,2.33621 v -1.23757 c 0.526134,-0.68892 0.832543,-1.51485 0.879039,-2.33629"
     fill="#989898"
     id="path37"
     style="stroke-width:0.0699501" />
  <path
     d="m 44.636901,34.68151 v 1.23757 c -0.258518,0.33857 -0.570306,0.64406 -0.930318,0.8996 v -1.23757 a 4.1491645,4.6015523 0 0 0 0.930318,-0.8996"
     fill="#949394"
     id="path38"
     style="stroke-width:0.0699501" />
  <path
     d="m 43.706583,35.58111 v 1.23757 a 4.4237562,4.906083 0 0 1 -0.85672,0.47035 v -1.23757 a 4.4237562,4.906083 0 0 0 0.85672,-0.47035"
     fill="#8e8e8e"
     id="path39"
     style="stroke-width:0.0699501" />
  <path
     d="m 42.849863,36.05124 v 1.23757 a 4.718939,5.2334499 0 0 1 -0.580735,0.1902 7.2186269,8.0056814 0 0 1 -0.617864,0.1242 v -1.23757 c 0.206774,-0.0314 0.412618,-0.0725 0.617864,-0.12427 a 4.6843327,5.1950704 0 0 0 0.580735,-0.19013"
     fill="#8a8a8a"
     id="path40"
     style="stroke-width:0.0699501" />
  <path
     d="m 41.651264,36.36564 v 1.23757 c -0.349384,0.053 -0.701358,0.0781 -1.056587,0.0784 -1.403447,5.2e-4 -2.806694,7.4e-4 -4.209809,7.4e-4 -1.403114,0 -2.806561,-2.2e-4 -4.209874,-2.2e-4 -1.598066,0 -3.196264,-3.7e-4 -4.794263,-3.7e-4 -1.198732,0 -2.397131,2.9e-4 -3.59573,0.001 -1.031545,0 -2.003443,-0.20118 -2.905199,-0.68921 -1.435462,-0.77635 -2.128451,-2.01864 -2.385573,-3.52471 a 2.3162947,2.5688427 0 0 1 -0.04019,-0.4778 v -1.23757 c 0,0.15684 0.01269,0.31595 0.04019,0.47779 0.257321,1.50601 0.950177,2.74815 2.385573,3.52465 0.901756,0.48781 1.873654,0.68928 2.905199,0.68928 1.198533,-8.1e-4 2.396998,-10e-4 3.59573,-10e-4 1.598065,0 3.196264,3.7e-4 4.794263,3.7e-4 1.40338,0 2.806826,2.2e-4 4.209874,2.2e-4 1.403048,0 2.806362,-2.2e-4 4.209809,-7.4e-4 a 7.8544256,8.7108019 0 0 0 1.056587,-0.0784"
     fill="#858585"
     id="path41"
     style="stroke-width:0.0699501" />
  <path
     d="m 33.929949,20.162749 c 0.136566,0 0.273994,0.0055 0.412619,0.01694 2.400386,0.2 4.319007,1.221217 5.575194,3.256511 0.374891,0.60832 0.644899,1.25841 0.831547,1.94202 0.04822,0.1782 0.03753,0.25746 -0.179674,0.25746 a 10.507284,11.652905 0 0 0 -0.198271,-0.002 c -0.346927,0 -0.693786,0.0233 -1.038122,0.0753 -0.423312,0.0644 -0.849813,0.53878 -0.86861,0.94858 -0.0178,0.39101 0,0.7446 0.363664,1.0249 0.213616,0.16538 0.411024,0.26239 0.688273,0.26748 0.02511,5.8e-4 0.05075,8.1e-4 0.07586,8.1e-4 0.229756,0 0.458184,-0.0174 0.686811,-0.0355 0.230487,-0.0178 0.461373,-0.0359 0.69352,-0.0359 0.07871,0 0.157223,0.002 0.236465,0.007 1.808227,0.11035 3.365642,1.11941 4.078092,2.95536 0.792623,2.04317 -0.474059,4.7592 -3.018316,5.39979 -0.551708,0.13886 -1.108796,0.20191 -1.674518,0.20265 -1.403381,5.1e-4 -2.806628,6.6e-4 -4.209809,6.6e-4 l -4.209875,-1.5e-4 c -1.597999,0 -3.196197,-4.4e-4 -4.794262,-4.4e-4 -1.198798,0 -2.397198,3e-4 -3.59573,10e-4 -1.031546,0 -2.003444,-0.20126 -2.905199,-0.68921 -1.435662,-0.77628 -2.128451,-2.01857 -2.385574,-3.52472 -0.153901,-0.90372 0.157356,-1.73046 0.543803,-2.52803 0.518829,-1.07065 1.328257,-1.87315 2.457244,-2.37732 0.302556,-0.13502 0.534969,-0.35366 0.508201,-0.75108 -0.04497,-0.65916 0.05486,-1.29511 0.333376,-1.91883 0.381532,-0.8562 1.442503,-1.540776 2.582118,-1.540776 0.432745,0 0.876914,0.09849 1.299429,0.324056 1.00491,0.53643 1.474785,1.37621 1.536358,2.41157 0.04078,0.67985 0.563863,1.13775 1.239316,1.13775 a 1.7661813,1.95875 0 0 0 0.355561,-0.0409 c 0.356226,-0.0802 0.741212,-0.57223 0.759877,-0.92405 0.06828,-1.30225 -0.282496,-2.46741 -1.221249,-3.435223 -0.143274,-0.14792 -0.04085,-0.210903 0.04543,-0.294586 0.543139,-0.524126 1.169041,-0.940775 1.85014,-1.277129 0.99395,-0.489798 2.038116,-0.853776 3.146313,-0.853776 z"
     fill="#f7fbfc"
     id="path42"
     style="stroke-width:0.0699501" />
  <path
     d="m 47.185409,31.48983 c 0.05154,0.49643 0.05154,0.93444 0.05154,1.37297 -0.145333,0.27197 -0.141746,0.58011 -0.220789,0.86895 -0.599133,2.17341 -2.590288,3.89165 -4.918539,4.23058 a 8.8270542,9.7894772 0 0 1 -1.155026,0.0854 c -3.431267,0.002 -6.863464,0.004 -10.294864,0.004 -2.390888,0 -4.781177,-8.1e-4 -7.172131,-0.003 -2.293844,-0.002 -4.147836,-0.87131 -5.508307,-2.65783 -0.623976,-0.81982 -0.9895,-1.74726 -1.140878,-2.75234 -0.0094,-0.0611 0.0194,-0.13827 -0.06357,-0.1754 v -1.3723 c 0.153104,-0.42571 0.189371,-0.87964 0.351376,-1.30535 0.584587,-1.53193 1.541274,-2.77547 3.009749,-3.62556 0.155163,-0.0901 0.202788,-0.18512 0.206176,-0.35838 0.04789,-2.464608 2.075246,-4.333707 4.579385,-4.333707 0.169378,0 0.340549,0.0085 0.51378,0.026 0.484022,0.04891 0.952834,0.173629 1.388634,0.38652 0.05002,0.02446 0.09186,0.03764 0.129989,0.03764 0.05885,0 0.108535,-0.03123 0.164662,-0.100037 0.999597,-1.2263 2.265083,-2.116909 3.772282,-2.681034 1.087208,-0.406925 2.166379,-0.613408 3.231933,-0.613408 1.372095,0 2.721872,0.342173 4.03857,1.038528 2.139145,1.131124 3.519078,2.873815 4.198716,5.125818 0.154699,0.5119 0.241712,1.03853 0.287943,1.56995 0.01136,0.13105 0.05952,0.18755 0.196146,0.23278 2.49743,0.82328 3.943586,2.4965 4.353215,4.99934 z m -4.916347,4.75154 c 2.544324,-0.64052 3.811006,-3.35676 3.018383,-5.39986 -0.712517,-1.83588 -2.269732,-2.84487 -4.078092,-2.95536 a 4.3304322,4.8025838 0 0 0 -0.236398,-0.007 c -0.232082,0 -0.463034,0.0181 -0.693587,0.0359 -0.228428,0.0181 -0.457055,0.0357 -0.686546,0.0357 -0.02537,0 -0.05088,-2.2e-4 -0.07612,-5.9e-4 -0.277182,-0.005 -0.474657,-0.10232 -0.688273,-0.2677 -0.363332,-0.28029 -0.381466,-0.63388 -0.363332,-1.0249 0.01846,-0.40979 0.445032,-0.88412 0.868411,-0.94851 0.344269,-0.0521 0.691129,-0.0753 1.038055,-0.0753 0.05898,0 0.118033,8.1e-4 0.17695,0.002 0.238391,1.5e-4 0.248953,-0.079 0.200796,-0.25731 -0.186781,-0.68354 -0.45659,-1.33363 -0.83148,-1.94196 -1.256121,-2.035286 -3.175075,-3.056429 -5.575195,-3.256429 a 5.5644344,6.1711305 0 0 0 -0.412618,-0.01709 c -1.10833,0 -2.152363,0.364125 -3.146114,0.854292 -0.680967,0.336427 -1.307001,0.753076 -1.849941,1.277202 -0.08662,0.08354 -0.188906,0.146519 -0.04557,0.294586 0.93862,0.967739 1.289532,2.132889 1.221116,3.435219 -0.0188,0.35167 -0.403651,0.84383 -0.759876,0.9239 a 1.771163,1.9642748 0 0 1 -0.355628,0.0409 c -0.675453,0 -1.198599,-0.45783 -1.239249,-1.13776 -0.06157,-1.03536 -0.531582,-1.87521 -1.536359,-2.41149 -0.422648,-0.225565 -0.866618,-0.324129 -1.299362,-0.324129 -1.139682,0 -2.200719,0.684569 -2.582185,1.540779 -0.278511,0.62372 -0.378145,1.25974 -0.333442,1.91889 0.02677,0.39743 -0.205512,0.61606 -0.508068,0.75094 -1.129121,0.50439 -1.938416,1.30675 -2.457244,2.37761 -0.386381,0.79728 -0.697572,1.62431 -0.543803,2.52789 0.257189,1.506 0.950178,2.74821 2.385574,3.52472 0.901755,0.48788 1.873653,0.6895 2.900283,0.6895 1.203315,-10e-4 2.401914,-10e-4 3.600646,-10e-4 1.597998,0 3.196263,4.4e-4 4.794262,4.4e-4 1.40338,0 2.806561,3e-4 4.209875,3e-4 1.403114,0 2.806295,-3e-4 4.209675,-8.9e-4 0.565657,-10e-4 1.122811,-0.0644 1.674452,-0.20331"
     fill="#56c3e9"
     id="path43"
     style="stroke-width:0.0699501" />
  <path
     d="m 16.824227,33.83636 v -1.23757 c 0,0.0138 2.66e-4,0.0271 0.0022,0.0397 0.151378,1.00501 0.516902,1.93223 1.140878,2.75227 1.360537,1.78645 3.214596,2.65584 5.508307,2.65783 2.390887,0.002 4.781243,0.003 7.172064,0.003 3.431467,0 6.863531,-0.002 10.294865,-0.004 0.386514,0 0.77077,-0.0292 1.155092,-0.0852 2.328051,-0.33893 4.319207,-2.05724 4.918672,-4.23065 0.07891,-0.28884 0.07559,-0.59698 0.220856,-0.86895 v 1.23757 c -0.1454,0.27205 -0.141946,0.58011 -0.220856,0.86895 -0.599266,2.17341 -2.590421,3.89172 -4.918672,4.23065 -0.384256,0.056 -0.768512,0.0853 -1.155092,0.0853 -3.431201,0.002 -6.863398,0.004 -10.294865,0.004 -2.390887,0 -4.781177,-8.2e-4 -7.172064,-0.003 -2.293844,-0.002 -4.14777,-0.87138 -5.508307,-2.65783 -0.623976,-0.81982 -0.9895,-1.74696 -1.140878,-2.75227 a 0.22643521,0.25112368 0 0 1 -0.0022,-0.0397 z"
     fill="#58a1d8"
     id="path44"
     style="stroke-width:0.0699501" />
  <path
     d="m 47.23702,32.86265 v 1.23757 c -0.145333,0.27205 -0.141746,0.58011 -0.220789,0.86903 -0.188575,0.68435 -0.515507,1.32354 -0.947322,1.88891 v -1.23764 c 0.431815,-0.5653 0.758548,-1.20472 0.947322,-1.88892 0.07884,-0.28884 0.07546,-0.5969 0.220789,-0.86895 m -1.168111,2.7578 v 1.23764 c -0.370838,0.4856 -0.819391,0.91654 -1.32447,1.27455 V 36.895 c 0.505079,-0.35787 0.953632,-0.78888 1.32447,-1.27455 m -1.324536,1.27477 v 1.23757 a 6.4473258,7.1502845 0 0 1 -1.245959,0.68434 v -1.23757 a 6.449252,7.1524208 0 0 0 1.245959,-0.68434 m -1.246158,0.68434 v 1.23757 A 6.5113573,7.2212974 0 0 1 42.1315,39.19474 v -1.23757 a 6.5318819,7.2440599 0 0 0 1.366715,-0.37761 M 42.1315,37.95717 v 1.23757 c -0.01122,0.002 -0.02258,0.003 -0.03387,0.005 -0.384189,0.0561 -0.768512,0.0855 -1.155026,0.0855 -3.431267,0.002 -6.863464,0.004 -10.294864,0.004 -2.390888,0 -4.781177,-8.2e-4 -7.172131,-0.003 -2.293844,-0.002 -4.147836,-0.87138 -5.508307,-2.65783 -0.623976,-0.81982 -0.9895,-1.74711 -1.140878,-2.75227 a 0.20989594,0.23278112 0 0 1 -0.0022,-0.0397 v -1.23757 c 0,0.0138 2.66e-4,0.0271 0.0022,0.0397 0.151378,1.00501 0.516902,1.93223 1.140878,2.75227 1.360604,1.78645 3.214596,2.65584 5.508307,2.65783 2.390954,0.002 4.781243,0.003 7.172131,0.003 3.4314,0 6.863531,-0.002 10.294864,-0.004 0.386448,0 0.77077,-0.0292 1.155026,-0.0852 0.01129,-0.002 0.02265,-0.003 0.03387,-0.005"
     fill="#58a1d8"
     id="path45"
     style="stroke-width:0.0699501" />
</svg>
