<?xml version="1.0" encoding="UTF-8" standalone="no"?>
<!-- Uploaded to: SVG Repo, www.svgrepo.com, Generator: SVG Repo Mixer Tools -->

<svg
   version="1.1"
   id="Layer_1"
   viewBox="0 0 50 50"
   xml:space="preserve"
   sodipodi:docname="dvp.svg"
   inkscape:version="1.4.2 (f4327f4, 2025-05-13)"
   width="50"
   height="50"
   xmlns:inkscape="http://www.inkscape.org/namespaces/inkscape"
   xmlns:sodipodi="http://sodipodi.sourceforge.net/DTD/sodipodi-0.dtd"
   xmlns="http://www.w3.org/2000/svg"
   xmlns:svg="http://www.w3.org/2000/svg"><defs
   id="defs5" /><sodipodi:namedview
   id="namedview5"
   pagecolor="#ffffff"
   bordercolor="#666666"
   borderopacity="1.0"
   inkscape:showpageshadow="2"
   inkscape:pageopacity="0.0"
   inkscape:pagecheckerboard="0"
   inkscape:deskcolor="#d1d1d1"
   inkscape:zoom="1.5097656"
   inkscape:cx="256"
   inkscape:cy="232.15524"
   inkscape:window-width="1920"
   inkscape:window-height="991"
   inkscape:window-x="-9"
   inkscape:window-y="-9"
   inkscape:window-maximized="1"
   inkscape:current-layer="Layer_1" />
<rect
   x="15.625"
   y="35.936855"
   style="fill:#333333;stroke-width:0.102619"
   width="18.75"
   height="11.682195"
   id="rect1" />
<polygon
   points="274.24,376.16 160,434.064 160,376.16 "
   id="polygon1"
   transform="matrix(0.09765625,0,0,0.10783299,0,-2.605245)" />
<path
   style="fill:#999999;stroke-width:0.102619"
   d="M 36.860937,50 H 13.139063 c -0.920313,0 -1.671875,-0.831608 -1.671875,-1.846101 v 0 c 0,-1.016218 0.753125,-1.846101 1.671875,-1.846101 h 23.720312 c 0.920312,0 1.671875,0.831608 1.671875,1.846101 v 0 C 38.53285,49.170117 37.779687,50 36.860937,50 Z"
   id="path1" />
<path
   style="fill:#d6d6d6;stroke-width:0.102619"
   d="M 46.875,37.957212 H 3.125 C 1.40625,37.957212 0,36.404417 0,34.506556 V 3.450656 C 0,1.552795 1.40625,0 3.125,0 h 43.75 C 48.59375,0 50,1.552795 50,3.450656 v 31.0559 c 0,1.897861 -1.40625,3.450656 -3.125,3.450656 z"
   id="path2" />
<rect
   x="2.1453125"
   y="2.3654249"
   style="fill:#333333;stroke-width:0.102619"
   width="45.71875"
   height="33.22636"
   id="rect2" />
<g
   id="g5"
   transform="matrix(0.09765625,0,0,0.10783299,0,-2.605245)">
	<path
   style="fill:#0ba4e0"
   d="m 119.664,196.288 91.824,-44.56 v 17.424 l -72.832,33.904 v 0.384 l 72.832,34.096 v 17.248 l -91.824,-44.56 z"
   id="path3" />
	<path
   style="fill:#0ba4e0"
   d="m 224.928,262.528 47.28,-140.448 h 16.656 l -47.28,140.448 z"
   id="path4" />
	<path
   style="fill:#0ba4e0"
   d="M 392.336,210.624 300.512,254.8 v -17.248 l 74.016,-34.096 v -0.384 l -74.016,-34.096 v -17.248 l 91.824,44.176 z"
   id="path5" />
</g>
</svg>
