<?xml version="1.0" encoding="UTF-8" standalone="no"?>
<!-- Uploaded to: SVG Repo, www.svgrepo.com, Generator: SVG Repo Mixer Tools -->

<svg
   aria-label="JavaScript"
   role="img"
   viewBox="0 0 16.558001 23.976"
   version="1.1"
   id="svg1"
   sodipodi:docname="javascript.svg"
   inkscape:version="1.4.2 (f4327f4, 2025-05-13)"
   width="16.558001"
   height="23.976"
   xmlns:inkscape="http://www.inkscape.org/namespaces/inkscape"
   xmlns:sodipodi="http://sodipodi.sourceforge.net/DTD/sodipodi-0.dtd"
   xmlns="http://www.w3.org/2000/svg"
   xmlns:svg="http://www.w3.org/2000/svg">
  <defs
     id="defs1" />
  <sodipodi:namedview
     id="namedview1"
     pagecolor="#ffffff"
     bordercolor="#666666"
     borderopacity="1.0"
     inkscape:showpageshadow="2"
     inkscape:pageopacity="0.0"
     inkscape:pagecheckerboard="0"
     inkscape:deskcolor="#d1d1d1"
     inkscape:zoom="1.5097656"
     inkscape:cx="105.64554"
     inkscape:cy="65.90427"
     inkscape:window-width="1920"
     inkscape:window-height="991"
     inkscape:window-x="-9"
     inkscape:window-y="-9"
     inkscape:window-maximized="1"
     inkscape:current-layer="svg1" />
  <rect
     width="16.558001"
     height="23.976"
     rx="0.48509768%"
     fill="#f7df1e"
     id="rect1"
     x="0"
     y="0"
     style="stroke-width:0.0389155" />
  <path
     d="m 9.8855818,15.63909 c 0.2947802,1.18222 0.7074902,2.01672 1.3855102,2.01672 0.58958,0 0.97281,-0.69542 0.97281,-1.66901 0,-1.11267 -0.38323,-1.52993 -1.03176,-2.22535 l -0.35376,-0.34771 C 9.8266218,12.37061 9.1486018,11.11885 9.1486018,8.4067099 c 0,-2.50351 0.79594,-4.45069 2.0635402,-4.45069 0.91385,0 1.56238,0.76496 2.00458,2.71214 l -1.09073,1.66901 c -0.23583,-1.04313 -0.50115,-1.46038 -0.91385,-1.46038 -0.41271,0 -0.67802,0.62588 -0.67802,1.46038 0,0.97359 0.26531,1.39084 0.88437,2.0167201 l 0.35375,0.34771 c 1.20864,1.25176 1.88666,2.43397 1.88666,5.2852 0,2.99031 -1.00229,4.65932 -2.35833,4.65932 -1.3265602,0 -2.1814502,-1.46038 -2.5941602,-3.40756 z m -5.01145,0.27817 c 0.23583,0.90405 0.41271,1.73855 0.91385,1.73855 0.47166,0 0.76646,-0.41725 0.76646,-2.08626 V 4.0255599 h 1.415 V 15.43046 c 0,3.47711 -0.8549,5.00703 -2.1225,5.00703 -1.14968,0 -1.79822,-1.39084 -2.1225,-3.05985 z"
     id="path1"
     style="stroke-width:0.0452774" />
</svg>
