<?xml version="1.0" encoding="UTF-8" standalone="no"?>
<!-- Uploaded to: SVG Repo, www.svgrepo.com, Generator: SVG Repo Mixer Tools -->

<svg
   version="1.1"
   id="Layer_1"
   viewBox="0 0 70.252266 66.332474"
   xml:space="preserve"
   sodipodi:docname="networking.svg"
   width="70.252266"
   height="66.332474"
   inkscape:version="1.4.2 (f4327f4, 2025-05-13)"
   xmlns:inkscape="http://www.inkscape.org/namespaces/inkscape"
   xmlns:sodipodi="http://sodipodi.sourceforge.net/DTD/sodipodi-0.dtd"
   xmlns="http://www.w3.org/2000/svg"
   xmlns:svg="http://www.w3.org/2000/svg"><defs
   id="defs17" /><sodipodi:namedview
   id="namedview17"
   pagecolor="#ffffff"
   bordercolor="#666666"
   borderopacity="1.0"
   inkscape:showpageshadow="2"
   inkscape:pageopacity="0.0"
   inkscape:pagecheckerboard="0"
   inkscape:deskcolor="#d1d1d1"
   inkscape:zoom="1.5306931"
   inkscape:cx="183.25032"
   inkscape:cy="176.06404"
   inkscape:window-width="1920"
   inkscape:window-height="991"
   inkscape:window-x="-9"
   inkscape:window-y="-9"
   inkscape:window-maximized="1"
   inkscape:current-layer="Layer_1" />
<ellipse
   style="fill:#90dfaa;stroke-width:0.135177"
   cx="35.126133"
   cy="33.166237"
   id="circle1"
   rx="35.126133"
   ry="33.166237" />
<g
   id="g1"
   transform="matrix(0.14326648,0,0,0.14974544,-2.4244608,-3.6541602)">
	<polygon
   style="fill:#ff7058"
   points="129.6,393.4 375.4,393.4 375.4,276.8 387.4,276.8 387.4,405.4 117.6,405.4 117.6,279 129.6,279 "
   id="polygon1" />
	<rect
   x="246.5"
   y="275.10001"
   style="fill:#ff7058"
   width="12"
   height="124.3"
   id="rect1" />
</g>
<path
   style="fill:#324a5e;stroke-width:0.14647"
   d="M 42.948034,41.149669 H 24.552616 c -0.157593,0 -0.286533,-0.13477 -0.286533,-0.29949 V 9.4635398 c 0,-0.16472 0.12894,-0.299491 0.286533,-0.299491 h 18.409738 c 0.1576,0 0.28654,0.134771 0.28654,0.299491 V 40.850179 c -0.0143,0.16472 -0.14327,0.29949 -0.30086,0.29949 z"
   id="path1" />
<g
   id="g5"
   transform="matrix(0.14326648,0,0,0.14974544,-2.4244608,-3.6541602)">
	<rect
   x="206.60001"
   y="203.60001"
   style="fill:#2b3b4e"
   width="91.900002"
   height="10.3"
   id="rect2" />
	<rect
   x="206.60001"
   y="224.2"
   style="fill:#2b3b4e"
   width="91.900002"
   height="10.3"
   id="rect3" />
	<rect
   x="206.60001"
   y="244.89999"
   style="fill:#2b3b4e"
   width="91.900002"
   height="10.3"
   id="rect4" />
	<rect
   x="206.60001"
   y="265.5"
   style="fill:#2b3b4e"
   width="91.900002"
   height="10.3"
   id="rect5" />
	<path
   style="fill:#2b3b4e"
   d="M 318.7,124.3 V 93.5 c 0,-4.4 -3.6,-7.9 -7.9,-7.9 H 194.2 c -4.4,0 -7.9,3.5 -7.9,7.9 v 30.8 z"
   id="path5" />
</g>
<ellipse
   style="fill:#4cdbc4;stroke-width:0.14647"
   cx="33.750324"
   cy="18.702835"
   id="circle5"
   rx="1.461318"
   ry="1.5274034" />
<ellipse
   style="fill:#ff7058;stroke-width:0.14647"
   cx="33.750324"
   cy="22.266777"
   id="circle6"
   rx="0.95988536"
   ry="1.0032943" />
<path
   style="fill:#324a5e;stroke-width:0.14647"
   d="m 58.549754,41.928349 h -12.66476 c -0.11461,0 -0.20057,-0.0898 -0.20057,-0.20964 V 20.125415 c 0,-0.119796 0.086,-0.209644 0.20057,-0.209644 h 12.66476 c 0.11461,0 0.20057,0.08985 0.20057,0.209644 v 21.608264 c 0,0.10482 -0.10029,0.19467 -0.20057,0.19467 z"
   id="path6" />
<g
   id="g9"
   transform="matrix(0.14326648,0,0,0.14974544,-2.4244608,-3.6541602)">
	<rect
   x="349.70001"
   y="238.60001"
   style="fill:#2b3b4e"
   width="63.200001"
   height="7.0999999"
   id="rect6" />
	<rect
   x="349.70001"
   y="252.8"
   style="fill:#2b3b4e"
   width="63.200001"
   height="7.0999999"
   id="rect7" />
	<rect
   x="349.70001"
   y="267"
   style="fill:#2b3b4e"
   width="63.200001"
   height="7.0999999"
   id="rect8" />
	<rect
   x="349.70001"
   y="281.29999"
   style="fill:#2b3b4e"
   width="63.200001"
   height="7.0999999"
   id="rect9" />
	<path
   style="fill:#2b3b4e"
   d="m 427,184 v -21.2 c 0,-3 -2.4,-5.5 -5.5,-5.5 h -80.3 c -3,0 -5.5,2.4 -5.5,5.5 V 184 Z"
   id="path9" />
</g>
<ellipse
   style="fill:#4cdbc4;stroke-width:0.14647"
   cx="52.217373"
   cy="26.489586"
   id="circle9"
   rx="1.017192"
   ry="1.0631926" />
<ellipse
   style="fill:#ff7058;stroke-width:0.14647"
   cx="52.217373"
   cy="28.945419"
   id="circle10"
   rx="0.65902579"
   ry="0.688829" />
<path
   style="fill:#324a5e;stroke-width:0.14647"
   d="M 21.615654,41.928349 H 8.9508972 c -0.114613,0 -0.200573,-0.08985 -0.200573,-0.20964 V 20.125415 c 0,-0.119796 0.08596,-0.209644 0.200573,-0.209644 H 21.615654 c 0.114613,0 0.200573,0.08985 0.200573,0.209644 v 21.608264 c 0,0.10482 -0.08596,0.19467 -0.200573,0.19467 z"
   id="path10" />
<g
   id="g13"
   transform="matrix(0.14326648,0,0,0.14974544,-2.4244608,-3.6541602)">
	<rect
   x="92"
   y="238.60001"
   style="fill:#2b3b4e"
   width="63.200001"
   height="7.0999999"
   id="rect10" />
	<rect
   x="92"
   y="252.8"
   style="fill:#2b3b4e"
   width="63.200001"
   height="7.0999999"
   id="rect11" />
	<rect
   x="92"
   y="267"
   style="fill:#2b3b4e"
   width="63.200001"
   height="7.0999999"
   id="rect12" />
	<rect
   x="92"
   y="281.29999"
   style="fill:#2b3b4e"
   width="63.200001"
   height="7.0999999"
   id="rect13" />
	<path
   style="fill:#2b3b4e"
   d="m 169.2,184 v -21.2 c 0,-3 -2.4,-5.5 -5.5,-5.5 H 83.5 c -3,0 -5.5,2.4 -5.5,5.5 V 184 Z"
   id="path13" />
</g>
<ellipse
   style="fill:#4cdbc4;stroke-width:0.14647"
   cx="15.283276"
   cy="26.489586"
   id="circle13"
   rx="1.017192"
   ry="1.0631926" />
<ellipse
   style="fill:#ff7058;stroke-width:0.14647"
   cx="15.283276"
   cy="28.945419"
   id="circle14"
   rx="0.65902579"
   ry="0.688829" />
<g
   id="g17"
   transform="matrix(0.14326648,0,0,0.14974544,-2.4244608,-3.6541602)">
	<circle
   style="fill:#e6e9ee"
   cx="380.70001"
   cy="398.89999"
   r="20.6"
   id="circle15" />
	<circle
   style="fill:#e6e9ee"
   cx="251.60001"
   cy="398.89999"
   r="20.6"
   id="circle16" />
	<circle
   style="fill:#e6e9ee"
   cx="123.6"
   cy="398.89999"
   r="20.6"
   id="circle17" />
</g>
</svg>
