<?xml version="1.0" encoding="UTF-8" standalone="no"?>
<!-- Uploaded to: SVG Repo, www.svgrepo.com, Generator: SVG Repo Mixer Tools -->

<svg
   width="50"
   height="50"
   viewBox="0 0 4 4"
   data-name="Layer 1"
   id="Layer_1"
   version="1.1"
   sodipodi:docname="pm.svg"
   inkscape:version="1.4.2 (f4327f4, 2025-05-13)"
   xmlns:inkscape="http://www.inkscape.org/namespaces/inkscape"
   xmlns:sodipodi="http://sodipodi.sourceforge.net/DTD/sodipodi-0.dtd"
   xmlns="http://www.w3.org/2000/svg"
   xmlns:svg="http://www.w3.org/2000/svg">
  <sodipodi:namedview
     id="namedview22"
     pagecolor="#ffffff"
     bordercolor="#666666"
     borderopacity="1.0"
     inkscape:showpageshadow="2"
     inkscape:pageopacity="0.0"
     inkscape:pagecheckerboard="0"
     inkscape:deskcolor="#d1d1d1"
     inkscape:zoom="0.96625"
     inkscape:cx="375.16171"
     inkscape:cy="130.9185"
     inkscape:window-width="1920"
     inkscape:window-height="991"
     inkscape:window-x="-9"
     inkscape:window-y="-9"
     inkscape:window-maximized="1"
     inkscape:current-layer="Layer_1" />
  <defs
     id="defs1">
    <style
       id="style1">
      .cls-1 {
        fill: #f5dd90;
      }

      .cls-2 {
        fill: #e7ecef;
      }

      .cls-3 {
        fill: #8b8c89;
      }

      .cls-4 {
        fill: #bc6c25;
      }

      .cls-5 {
        fill: #a3cef1;
      }

      .cls-6 {
        fill: #dda15e;
      }

      .cls-7 {
        fill: #6096ba;
      }

      .cls-8 {
        fill: #274c77;
      }
    </style>
  </defs>
  <path
     class="cls-5"
     d="m 2.1426667,2.9333333 c -0.1213334,-0.1233333 -0.29,-0.2 -0.476,-0.2 h -0.2 V 2.5806667 L 1.572,2.536 C 1.67,2.494 1.7333333,2.3973333 1.7333333,2.2906667 V 2.24 L 1.88,2.2106667 c 0.030667,-0.006 0.053333,-0.033333 0.053333,-0.065333 V 2.0486667 C 1.9526667,2.06 1.976,2.0666667 2,2.0666667 c 0.073333,0 0.1333333,-0.06 0.1333333,-0.1333334 C 2.1333333,1.86 2.0733333,1.8 2,1.8 1.972,1.8 1.946,1.8086667 1.924,1.824 1.914,1.76 1.894,1.6993333 1.866667,1.6433333 V 0 h 1.8 L 4,0.2666667 V 3.3333333 H 3.286 l 0.114,-0.4 z"
     id="path1"
     style="stroke-width:0.0666667" />
  <rect
     class="cls-8"
     height="0.40000001"
     width="0.13333334"
     x="2.8666668"
     y="0.79999995"
     id="rect1"
     style="stroke-width:0.0666667" />
  <rect
     class="cls-8"
     height="0.13333334"
     width="0.26666668"
     x="3.1333332"
     y="1.3333333"
     id="rect2"
     style="stroke-width:0.0666667" />
  <rect
     class="cls-8"
     height="0.13333334"
     width="0.26666668"
     x="2.4666667"
     y="1.3333333"
     id="rect3"
     style="stroke-width:0.0666667" />
  <path
     class="cls-8"
     d="m 3.2193333,1.9806667 -0.286,-0.286 -0.286,0.286 -0.094,-0.094 0.3333334,-0.3333334 c 0.026,-0.026 0.068,-0.026 0.094,0 L 3.314,1.8866667 l -0.094,0.094 z"
     id="path3"
     style="stroke-width:0.0666667" />
  <path
     class="cls-6"
     d="m 1.572,2.536 -0.2,0.086 c -0.067333,0.028667 -0.1433333,0.028667 -0.21,0 L 0.962,2.536 C 0.864,2.494 0.8006667,2.3973333 0.8006667,2.2906667 V 1.9333333 c 0,-0.2206666 0.1793333,-0.4 0.4,-0.4 H 1.334 c 0.2206667,0 0.4,0.1793334 0.4,0.4 V 2.2906667 C 1.734,2.3973333 1.670667,2.494 1.5726667,2.536 Z"
     id="path4"
     style="stroke-width:0.0666667" />
  <path
     class="cls-8"
     d="m 2.1426667,2.9333333 c -0.1213334,-0.1233333 -0.29,-0.2 -0.476,-0.2 h -0.2 c 0,0.1106667 -0.089333,0.2 -0.2,0.2 -0.1106667,0 -0.2,-0.089333 -0.2,-0.2 h -0.2 C 0.4986667,2.7333333 0.2,3.032 0.2,3.4 V 3.8666667 H 1.6666667 L 1.9333333,2.9333333 Z"
     id="path5"
     style="stroke-width:0.0666667" />
  <path
     class="cls-6"
     d="M 0.9333333,3.6 H 1.0666667 C 1.14,3.6 1.2,3.66 1.2,3.7333333 V 3.8666667 H 0.9333333 Z"
     id="path6"
     style="stroke-width:0.0666667" />
  <path
     class="cls-8"
     d="m 0.6,2.0486667 c -0.019333,0.011333 -0.042667,0.018 -0.066667,0.018 C 0.46,2.0666667 0.4,2.0066667 0.4,1.9333333 0.4,1.86 0.46,1.8 0.5333333,1.8 c 0.028,0 0.054,0.00867 0.076,0.024"
     id="path7"
     style="stroke-width:0.0666667" />
  <path
     class="cls-8"
     d="M 1.9333333,2.0486667 C 1.9526667,2.06 1.976,2.0666667 2,2.0666667 c 0.073333,0 0.1333333,-0.06 0.1333333,-0.1333334 C 2.1333333,1.86 2.0733333,1.8 2,1.8 1.972,1.8 1.946,1.8086667 1.924,1.824"
     id="path8"
     style="stroke-width:0.0666667" />
  <path
     class="cls-4"
     d="m 1.0666667,2.5806667 0.094667,0.040667 c 0.067333,0.029333 0.1433334,0.029333 0.2106667,0 l 0.094667,-0.040667 v 0.1526666 c 0,0.1106667 -0.089333,0.2 -0.2,0.2 -0.1106667,0 -0.2,-0.089333 -0.2,-0.2 z"
     id="path9"
     style="stroke-width:0.0666667" />
  <polyline
     class="cls-3"
     points="27 60 31 46 53 46 49 60"
     id="polyline9"
     transform="matrix(0.06666667,0,0,0.06666667,-0.1333333,-0.1333333)" />
  <path
     class="cls-8"
     d="m 1.6933333,1.7586667 h -6.666e-4 c -0.038,-0.015333 -0.082,-0.025333 -0.1373334,-0.025333 C 1.2666667,1.7333333 1.2666667,2 0.9773333,2 0.902,2 0.846,1.982 0.8,1.9553333 v -0.022 c 0,-0.2206666 0.1793333,-0.4 0.4,-0.4 h 0.1333333 c 0.158,0 0.2946667,0.092 0.3593334,0.2253334 z"
     id="path10"
     style="stroke-width:0.0666667" />
  <path
     class="cls-2"
     d="M 1.7333333,2.24 V 1.9333333 c 0,-0.2206666 -0.1793333,-0.4 -0.4,-0.4 H 1.2 c -0.2206667,0 -0.4,0.1793334 -0.4,0.4 V 2.2 H 0.6666667 C 0.63,2.2 0.6,2.17 0.6,2.1333333 v -0.2 c 0,-0.368 0.2986667,-0.6666666 0.6666667,-0.6666666 0.184,0 0.3506666,0.074667 0.4713333,0.1953333 0.1206667,0.1206667 0.1953333,0.2873333 0.1953333,0.4713333 v 0.212 c 0,0.032 -0.022667,0.059333 -0.053333,0.065333 z"
     id="path11"
     style="stroke-width:0.0666667" />
  <path
     class="cls-5"
     d="M 2.5333333,3.3333333 C 2.57,3.3333333 2.6,3.3633333 2.6,3.4 2.6,3.436667 2.57,3.466667 2.533333,3.466667 Z"
     id="path12"
     style="stroke-width:0.0666667" />
  <path
     class="cls-7"
     d="M 1.2666667,3.8666667 H 1.1333333 V 3.7333333 c 0,-0.036667 -0.03,-0.066667 -0.066667,-0.066667 H 0.6 c -0.036667,0 -0.066667,-0.03 -0.066667,-0.066667 v -0.266666 c 0,-0.018 0.00733,-0.034667 0.019333,-0.047333 l 0.086,-0.086 c 0.026,-0.026 0.068,-0.026 0.094,0 v 0 c 0.026,0.026 0.026,0.068 0,0.094 L 0.666,3.3606667 v 0.1726666 h 0.4 c 0.1106667,0 0.2,0.089333 0.2,0.2 v 0.1333334 z"
     id="path13"
     style="stroke-width:0.0666667" />
  <rect
     class="cls-5"
     height="0.13333334"
     width="3.3333333"
     x="0"
     y="3.8666668"
     id="rect13"
     style="stroke-width:0.0666667" />
  <path
     class="cls-7"
     d="m 1.2666667,2.3333333 v 0 c -0.00733,-0.036 0.016,-0.071333 0.052,-0.078667 l 0.548,-0.1093334 V 1.9546667 C 1.8666667,1.6353333 1.626,1.356 1.308,1.3346667 0.9586667,1.3113333 0.6666667,1.5886667 0.6666667,1.9333333 v 0.2 H 0.8 V 2.2666667 H 0.6666667 c -0.073333,0 -0.1333334,-0.06 -0.1333334,-0.1333334 V 1.9546667 C 0.5333333,1.5733333 0.816,1.2386667 1.196,1.2033333 1.632,1.162 2,1.5053333 2,1.9333333 v 0.212 C 2,2.2086667 1.955333,2.2633333 1.8926667,2.276 l -0.548,0.1093333 c -0.036,0.00733 -0.071333,-0.016 -0.078667,-0.052 z"
     id="path14"
     style="stroke-width:0.0666667" />
  <rect
     class="cls-1"
     height="0.53333336"
     width="0.53333336"
     x="2.6666665"
     y="0.26666665"
     id="rect14"
     style="stroke-width:0.0666667" />
  <circle
     class="cls-8"
     cx="2.2666669"
     cy="1.4000001"
     id="circle14"
     style="stroke-width:0.0666667"
     r="0.2" />
  <circle
     class="cls-7"
     cx="2.9333334"
     cy="1.4000001"
     id="circle15"
     style="stroke-width:0.0666667"
     r="0.2" />
  <circle
     class="cls-8"
     cx="3.5999999"
     cy="1.4000001"
     id="circle16"
     style="stroke-width:0.0666667"
     r="0.2" />
  <circle
     class="cls-8"
     cx="2.5999999"
     cy="2.1333332"
     id="circle17"
     style="stroke-width:0.0666667"
     r="0.2" />
  <circle
     class="cls-8"
     cx="3.2666669"
     cy="2.1333332"
     id="circle18"
     style="stroke-width:0.0666667"
     r="0.2" />
  <path
     class="cls-1"
     d="M 2.2666667,1.6666667 C 2.1193333,1.6666667 2,1.5473333 2,1.4 2,1.2526667 2.1193333,1.1333333 2.2666667,1.1333333 2.414,1.1333333 2.5333333,1.2526667 2.5333333,1.4 c 0,0.1473333 -0.1193333,0.2666667 -0.2666666,0.2666667 z m 0,-0.4 c -0.073333,0 -0.1333334,0.06 -0.1333334,0.1333333 0,0.073333 0.06,0.1333333 0.1333334,0.1333333 C 2.34,1.5333333 2.4,1.4733333 2.4,1.4 2.4,1.3266667 2.34,1.2666667 2.2666667,1.2666667 Z"
     id="path18"
     style="stroke-width:0.0666667" />
  <path
     class="cls-1"
     d="M 2.9333333,1.6666667 C 2.786,1.6666667 2.6666667,1.5473333 2.6666667,1.4 2.6666667,1.2526667 2.786,1.1333333 2.9333333,1.1333333 3.0806667,1.1333333 3.2,1.2526667 3.2,1.4 3.2,1.5473333 3.0806667,1.6666667 2.9333333,1.6666667 Z m 0,-0.4 C 2.86,1.2666667 2.8,1.3266667 2.8,1.4 c 0,0.073333 0.06,0.1333333 0.1333333,0.1333333 0.073333,0 0.1333334,-0.06 0.1333334,-0.1333333 0,-0.073333 -0.06,-0.1333333 -0.1333334,-0.1333333 z"
     id="path19"
     style="stroke-width:0.0666667" />
  <path
     class="cls-1"
     d="M 3.6,1.6666667 C 3.4526667,1.6666667 3.3333333,1.5473333 3.3333333,1.4 3.3333333,1.2526667 3.4526667,1.1333333 3.6,1.1333333 c 0.1473333,0 0.2666667,0.1193334 0.2666667,0.2666667 0,0.1473333 -0.1193334,0.2666667 -0.2666667,0.2666667 z m 0,-0.4 c -0.073333,0 -0.1333333,0.06 -0.1333333,0.1333333 0,0.073333 0.06,0.1333333 0.1333333,0.1333333 0.073333,0 0.1333333,-0.06 0.1333333,-0.1333333 0,-0.073333 -0.06,-0.1333333 -0.1333333,-0.1333333 z"
     id="path20"
     style="stroke-width:0.0666667" />
  <path
     class="cls-1"
     d="M 2.6,2.4 C 2.4526667,2.4 2.3333333,2.2806667 2.3333333,2.1333333 2.3333333,1.986 2.4526667,1.8666667 2.6,1.8666667 2.7473333,1.8666667 2.8666667,1.986 2.8666667,2.1333333 2.8666667,2.2806667 2.7473333,2.4 2.6,2.4 Z M 2.6,2 C 2.526667,2 2.4666667,2.06 2.4666667,2.1333333 c 0,0.073333 0.06,0.1333334 0.1333333,0.1333334 0.073333,0 0.1333333,-0.06 0.1333333,-0.1333334 C 2.7333333,2.06 2.6733333,2 2.6,2 Z"
     id="path21"
     style="stroke-width:0.0666667" />
  <path
     class="cls-1"
     d="M 3.2666667,2.4 C 3.1193333,2.4 3,2.2806667 3,2.1333333 3,1.986 3.1193333,1.8666667 3.2666667,1.8666667 3.414,1.8666667 3.5333333,1.986 3.5333333,2.1333333 3.5333333,2.2806667 3.414,2.4 3.2666667,2.4 Z m 0,-0.4 c -0.073333,0 -0.1333334,0.06 -0.1333334,0.1333333 0,0.073333 0.06,0.1333334 0.1333334,0.1333334 C 3.34,2.2666667 3.4,2.2066667 3.4,2.1333333 3.4,2.06 3.34,2 3.2666667,2 Z"
     id="path22"
     style="stroke-width:0.0666667" />
</svg>
