<?xml version="1.0" encoding="UTF-8" standalone="no"?>
<!-- Uploaded to: SVG Repo, www.svgrepo.com, Generator: SVG Repo Mixer Tools -->

<svg
   width="16.557955"
   height="23.976095"
   viewBox="-8.78 0 1.448821 2.0979083"
   version="1.1"
   id="svg1"
   sodipodi:docname="sql.svg"
   inkscape:version="1.4.2 (f4327f4, 2025-05-13)"
   xmlns:inkscape="http://www.inkscape.org/namespaces/inkscape"
   xmlns:sodipodi="http://sodipodi.sourceforge.net/DTD/sodipodi-0.dtd"
   xmlns="http://www.w3.org/2000/svg"
   xmlns:svg="http://www.w3.org/2000/svg"
   xmlns:rdf="http://www.w3.org/1999/02/22-rdf-syntax-ns#"
   xmlns:cc="http://creativecommons.org/ns#"
   xmlns:dc="http://purl.org/dc/elements/1.1/">
  <defs
     id="defs1" />
  <sodipodi:namedview
     id="namedview1"
     pagecolor="#ffffff"
     bordercolor="#666666"
     borderopacity="1.0"
     inkscape:showpageshadow="2"
     inkscape:pageopacity="0.0"
     inkscape:pagecheckerboard="0"
     inkscape:deskcolor="#d1d1d1"
     inkscape:zoom="0.96625"
     inkscape:cx="119.53428"
     inkscape:cy="154.72186"
     inkscape:window-width="1920"
     inkscape:window-height="991"
     inkscape:window-x="-9"
     inkscape:window-y="-9"
     inkscape:window-maximized="1"
     inkscape:current-layer="svg1" />
  <metadata
     id="metadata1">
    <rdf:RDF>
      <cc:Work>
        <dc:subject>
                    Data
                </dc:subject>
        <dc:identifier>
                    sql-database-generic
                </dc:identifier>
        <dc:format>
                    image/svg+xml
                </dc:format>
        <dc:publisher>
                    Amido Limited
                </dc:publisher>
        <dc:creator>
                    Richard Slater
                </dc:creator>
        <dc:type
           rdf:resource="http://purl.org/dc/dcmitype/StillImage" />
      </cc:Work>
    </rdf:RDF>
  </metadata>
  <path
     d="m -8.170488,2.0965737 c -0.180999,-0.01416 -0.359892,-0.06358 -0.469606,-0.129758 -0.06249,-0.03769 -0.110103,-0.08401 -0.128786,-0.125295 L -8.78,1.8169607 V 1.0464937 0.27602667 l 0.0088,-0.01938 c 0.03931,-0.08658 0.164754,-0.164639 0.339871,-0.211473 0.05944,-0.0159 0.145259,-0.03173 0.215269,-0.03972 0.07149,-0.0082 0.260975,-0.0069 0.332286,0.0022 0.189529,0.02416 0.350806,0.07824 0.450195,0.150979 0.03833,0.02805 0.07766,0.07293 0.09098,0.103822 l 0.01142,0.02649 -9.78e-4,0.76813603 -9.77e-4,0.768141 -0.0092,0.02021 c -0.005,0.01112 -0.02028,0.03299 -0.03385,0.0486 -0.08264,0.09505 -0.259913,0.165361 -0.492433,0.195319 -0.04739,0.0061 -0.253282,0.01105 -0.301905,0.0072 z m 0.333551,-0.660188 c -6.96e-4,-0.002 -0.02775,-0.02812 -0.06013,-0.05812 -0.03237,-0.03 -0.06026,-0.05595 -0.06196,-0.05767 -0.0017,-0.0017 0.0043,-0.0078 0.01329,-0.01356 0.009,-0.0057 0.02629,-0.02168 0.03838,-0.03544 0.03537,-0.04024 0.05206,-0.08995 0.05206,-0.15506 0,-0.0641 -0.018,-0.115818 -0.05405,-0.15529803 -0.03633,-0.03979 -0.07805,-0.05689 -0.138804,-0.05689 -0.09365,0 -0.165565,0.05928 -0.18852,0.15539603 -0.0079,0.03306 -0.0079,0.09986 8.3e-5,0.129177 0.0207,0.07646 0.07708,0.131997 0.147249,0.145038 0.02375,0.0044 0.02696,0.0063 0.04315,0.02552 0.0096,0.01141 0.02936,0.03419 0.04387,0.05062 l 0.02638,0.02987 h 0.07013 c 0.03857,0 0.06956,-0.0016 0.06886,-0.0036 z m -0.240503,-0.21304 c -0.01688,-0.0096 -0.02327,-0.01696 -0.03289,-0.0382 -0.0074,-0.0164 -0.0087,-0.02573 -0.0088,-0.06449 -8.3e-5,-0.03939 0.0011,-0.0479 0.0088,-0.065 0.0127,-0.02799 0.03021,-0.04124 0.05729,-0.04336 0.03769,-0.003 0.05945,0.0171 0.07085,0.06534 0.01398,0.05914 -0.0014,0.12201 -0.03494,0.142875 -0.0176,0.01095 -0.04385,0.01218 -0.06036,0.0028 z m -0.310849,0.109771 c 0.07353,-0.01513 0.115267,-0.06152 0.115267,-0.12812 0,-0.05908 -0.02695,-0.09351 -0.101422,-0.129579 -0.04263,-0.02065 -0.05808,-0.03361 -0.05808,-0.04875 0,-0.01255 0.01466,-0.0263 0.03172,-0.02976 0.01666,-0.0034 0.06084,0.005 0.08693,0.01638 l 0.02187,0.0096 v -0.05252 -0.05252 l -0.02373,-0.0057 c -0.01467,-0.0035 -0.04549,-0.0056 -0.0807,-0.0055 -0.04987,0 -0.05963,0.0013 -0.0784,0.0094 -0.05482,0.02361 -0.08083,0.06383 -0.08041,0.12433003 3.9e-4,0.05664 0.02793,0.09197 0.09647,0.123749 0.04044,0.01875 0.05665,0.03303 0.05665,0.04991 0,0.03586 -0.05507,0.04027 -0.113376,0.0091 -0.01597,-0.0085 -0.03031,-0.01622 -0.03188,-0.01708 -0.0016,-8.52e-4 -0.0028,0.02368 -0.0028,0.05452 0,0.05582 5.5e-5,0.05608 0.0094,0.05993 0.03507,0.01447 0.112599,0.02092 0.152584,0.01269 z m 0.840599,-0.05178 v -0.04738 H -7.61415 -7.68061 V 1.0712107 0.90846467 h -0.05886 -0.05886 v 0.21012803 0.210128 h 0.125319 0.125319 z M -7.957825,0.45102167 c 0.116969,-0.0088 0.204649,-0.02542 0.281806,-0.05341 0.07687,-0.02788 0.122273,-0.06162 0.13243,-0.0984 0.0039,-0.01417 0.0036,-0.01955 -0.0018,-0.03509 -0.02452,-0.06966 -0.161512,-0.123188 -0.370841,-0.144889 -0.08954,-0.0093 -0.252386,-0.0063 -0.337762,0.0062 -0.130273,0.0191 -0.235995,0.05457 -0.283003,0.09495 -0.09509,0.0817 0.0055,0.171554 0.239327,0.213847 0.101401,0.01834 0.232774,0.02482 0.339881,0.01675 z"
     fill="#00bcf2"
     id="path1"
     style="stroke-width:0.0287727" />
</svg>
