<?xml version="1.0" encoding="UTF-8" standalone="no"?>
<!-- Uploaded to: SVG Repo, www.svgrepo.com, Generator: SVG Repo Mixer Tools -->

<svg
   fill="#000000"
   width="50"
   height="50"
   viewBox="0 0 2 2"
   version="1.1"
   id="svg1"
   sodipodi:docname="whatsapp.svg"
   inkscape:version="1.4.2 (f4327f4, 2025-05-13)"
   xmlns:inkscape="http://www.inkscape.org/namespaces/inkscape"
   xmlns:sodipodi="http://sodipodi.sourceforge.net/DTD/sodipodi-0.dtd"
   xmlns="http://www.w3.org/2000/svg"
   xmlns:svg="http://www.w3.org/2000/svg"
   xmlns:rdf="http://www.w3.org/1999/02/22-rdf-syntax-ns#"
   xmlns:cc="http://creativecommons.org/ns#"
   xmlns:dc="http://purl.org/dc/elements/1.1/">
  <defs
     id="defs1" />
  <sodipodi:namedview
     id="namedview1"
     pagecolor="#ffffff"
     bordercolor="#666666"
     borderopacity="1.0"
     inkscape:showpageshadow="2"
     inkscape:pageopacity="0.0"
     inkscape:pagecheckerboard="0"
     inkscape:deskcolor="#d1d1d1"
     inkscape:zoom="3.865"
     inkscape:cx="77.74903"
     inkscape:cy="84.476067"
     inkscape:window-width="1920"
     inkscape:window-height="991"
     inkscape:window-x="-9"
     inkscape:window-y="-9"
     inkscape:window-maximized="1"
     inkscape:current-layer="svg1" />
  <title
     id="title1">whatsapp</title>
  <path
     d="M 1.708667,0.2903828 C 1.5284264,0.1109777 1.2794398,0 1.0043888,0 0.4543536,0 0.0083755,0.4438442 0.0083755,0.9913966 c 0,0.1822062 0.049382,0.3528744 0.1354819,0.4995998 L 0.1413113,1.4863279 0,2 0.5279239,1.8621449 c 0.137425,0.075964 0.3013836,0.1206482 0.4758618,0.1206482 h 4.02e-4 C 1.5542229,1.982593 2,1.5386821 2,0.9911965 2,0.7175537 1.8886395,0.4698546 1.7086,0.2904495 v 0 z M 1.0041877,1.8153261 h -3.35e-4 c 0,0 -6.7e-5,0 -6.7e-5,0 -0.1553821,0 -0.3007806,-0.042684 -0.4249388,-0.1169134 l 0.00375,0.00207 -0.030219,-0.017807 -0.3132433,0.081833 0.083554,-0.304055 -0.019699,-0.031146 C 0.2235896,1.305122 0.1764192,1.1537949 0.1764192,0.9914633 c 0,-0.454982 0.3705987,-0.8238629 0.8276994,-0.8238629 0.4571008,0 0.8276995,0.3688809 0.8276995,0.8238629 0,0.4549819 -0.3705317,0.8238628 -0.8276995,0.8238628 v 0 z M 1.4582063,1.198346 C 1.4333483,1.185941 1.3109987,1.1261171 1.2882174,1.1177804 c -0.022848,-0.00827 -0.039465,-0.012338 -0.056082,0.012472 -0.016483,0.024743 -0.06419,0.080499 -0.07873,0.097039 -0.014473,0.016607 -0.02908,0.018607 -0.053938,0.00627 C 1.0224124,1.202481 0.956213,1.1610644 0.8986567,1.110044 l 6.7e-4,6.003e-4 C 0.8457907,1.0612912 0.7998927,1.0048019 0.7628397,0.9425103 l -0.00188,-0.00347 c -0.014473,-0.024743 -0.00154,-0.038149 0.010855,-0.050487 0.01119,-0.011071 0.024925,-0.028945 0.037321,-0.043351 0.00978,-0.011938 0.018158,-0.02561 0.024524,-0.040283 l 4.02e-4,-0.00113 c 0.00288,-0.0058 0.00456,-0.012538 0.00456,-0.019741 0,-0.00874 -0.00248,-0.016873 -0.00677,-0.02381 l 1.34e-4,2.001e-4 c -0.0063,-0.012405 -0.056013,-0.1343204 -0.076717,-0.1839402 -0.020235,-0.048286 -0.040805,-0.041683 -0.056015,-0.042484 -0.014473,-6.669e-4 -0.03109,-8.003e-4 -0.047707,-8.003e-4 -0.026466,6.669e-4 -0.049985,0.012538 -0.0662,0.030879 l -6.7e-5,1.334e-4 c -0.053737,0.050754 -0.087105,0.1223156 -0.087105,0.201614 0,0.00173 0,0.00353 6.7e-5,0.00527 v -2.667e-4 c 0.00878,0.097839 0.04563,0.1856742 0.102315,0.2572362 l -8.04e-4,-10e-4 C 0.7072264,1.185741 0.8504808,1.3126584 1.0185936,1.3981593 l 0.0063,0.00287 c 0.036718,0.01654 0.083755,0.034214 0.1318637,0.049353 l 0.00998,0.00273 c 0.029616,0.00934 0.063721,0.014739 0.099099,0.014739 0.020302,0 0.040269,-0.0018 0.059566,-0.0052 l -0.00208,2.668e-4 c 0.071627,-0.014873 0.1310597,-0.05789 0.1673088,-0.1166467 l 6.03e-4,-0.00113 c 0.011056,-0.02441 0.017488,-0.052888 0.017488,-0.082833 0,-0.012338 -0.00107,-0.02441 -0.00315,-0.036148 l 2.01e-4,0.00127 c -0.00616,-0.010337 -0.022781,-0.016473 -0.047707,-0.028945 z"
     id="path1"
     style="stroke-width:0.0668484;fill:#ffffff" />
  <metadata
     id="metadata1">
    <rdf:RDF>
      <cc:Work
         rdf:about="">
        <dc:title>whatsapp</dc:title>
      </cc:Work>
    </rdf:RDF>
  </metadata>
</svg>
